<svg width="632" height="632" viewBox="0 0 632 632" fill="none" xmlns="http://www.w3.org/2000/svg">
<rect x="0.928467" y="0.786621" width="630.743" height="630.743" rx="54" fill="#21AA60"/>
<path fill-rule="evenodd" clip-rule="evenodd" d="M324.029 205.999C320.538 200.146 312.062 200.146 308.57 205.999L211.545 368.655C207.967 374.654 212.289 382.266 219.274 382.266H244.889C256.796 382.266 267.933 376.378 274.638 366.539L309.689 315.105C312.865 310.445 319.735 310.445 322.911 315.105L357.961 366.539C364.667 376.378 375.803 382.266 387.71 382.266H413.325C420.311 382.266 424.633 374.654 421.055 368.655L324.029 205.999Z" fill="#ACFFB4"/>
<path fill-rule="evenodd" clip-rule="evenodd" d="M324.029 230.219C320.538 224.366 312.062 224.366 308.57 230.219L211.545 392.875C207.967 398.874 212.289 406.486 219.274 406.486H244.889C256.796 406.486 267.933 400.598 274.638 390.759L309.689 339.325C312.865 334.665 319.735 334.665 322.911 339.325L357.961 390.759C364.667 400.598 375.803 406.486 387.71 406.486H413.325C420.311 406.486 424.633 398.874 421.055 392.875L324.029 230.219Z" fill="#ACFFB4" fill-opacity="0.31"/>
<path fill-rule="evenodd" clip-rule="evenodd" d="M324.029 254.439C320.538 248.587 312.062 248.587 308.57 254.439L211.545 417.096C207.967 423.095 212.289 430.706 219.274 430.706H244.889C256.796 430.706 267.933 424.819 274.638 414.979L309.689 363.545C312.865 358.885 319.735 358.885 322.911 363.545L357.961 414.979C364.667 424.819 375.803 430.706 387.71 430.706H413.325C420.311 430.706 424.633 423.095 421.055 417.096L324.029 254.439Z" fill="#ACFFB4" fill-opacity="0.31"/>
</svg>
